<svg version="1.1" id="Layer_1" xmlns="http://www.w3.org/2000/svg" xmlns:xlink="http://www.w3.org/1999/xlink" x="0px" y="0px"
	 width="100%" viewBox="0 0 256 256" enable-background="new 0 0 256 256" xml:space="preserve">
<path fill="#000000" opacity="1.000000" stroke="none" 
	d="
M151.000000,1.000002 
	C151.000000,1.000000 151.500000,1.000000 151.987732,1.256715 
	C154.333435,2.191210 156.161255,2.971302 158.054626,3.528869 
	C165.800507,5.809931 165.797638,5.784423 165.404083,13.871078 
	C165.331238,15.367702 165.431961,16.872824 165.357666,18.369312 
	C165.249893,20.539928 165.733292,22.316662 167.964447,23.244572 
	C170.281342,24.208151 172.175980,23.684492 173.774277,21.811701 
	C175.720169,19.531672 177.772141,17.334932 179.606766,14.969193 
	C181.566925,12.441578 183.541687,12.054845 186.472961,13.607376 
	C196.842972,19.099777 196.891296,19.009396 193.080566,29.989918 
	C192.971466,30.304321 192.838593,30.610914 192.707764,30.917284 
	C191.708740,33.256561 191.622894,35.232468 193.932648,37.105186 
	C196.471786,39.163906 198.485641,38.307343 200.665222,36.742073 
	C202.965500,35.090130 205.356003,33.559898 207.610229,31.848866 
	C209.880432,30.125706 211.673523,30.489061 213.788040,32.326107 
	C223.138260,40.449368 223.182404,40.398872 216.096939,50.523506 
	C215.905914,50.796497 215.725174,51.081631 215.501175,51.325821 
	C213.761658,53.222176 213.833847,55.036812 215.339264,57.139706 
	C216.977554,59.428223 218.767105,59.914623 221.350052,58.842449 
	C224.419632,57.568272 227.604584,56.568783 230.752853,55.489075 
	C231.987152,55.065769 233.388641,54.320927 234.397827,55.746609 
	C236.996918,59.418407 239.989960,63.129860 240.900803,67.448326 
	C241.641953,70.962212 236.998367,71.874939 235.110641,74.271072 
	C234.299866,75.300201 233.194168,76.129013 232.124023,76.914749 
	C230.237839,78.299629 229.657455,79.874664 230.770477,82.080750 
	C231.817093,84.155159 233.039505,85.832672 235.665985,85.524307 
	C236.985199,85.369423 238.281052,85.025536 239.596222,84.824524 
	C248.451553,83.471031 249.355927,84.079865 251.531296,92.795380 
	C253.331192,100.006615 253.330627,100.005463 246.477615,103.230888 
	C245.121353,103.869240 243.807693,104.617783 242.409668,105.143349 
	C240.094620,106.013634 238.999298,107.338181 239.298813,110.039383 
	C239.613876,112.880836 241.064301,113.931595 243.636765,114.640755 
	C248.069122,115.862633 252.939331,115.348564 257.000000,118.000000 
	C257.000000,122.689255 257.000000,127.378510 256.596497,132.622025 
	C252.276794,133.917755 248.380127,134.798569 244.437439,135.350616 
	C241.901047,135.705750 240.611374,136.749954 240.268860,139.379959 
	C239.954056,141.797272 240.177811,143.615311 242.704071,144.652679 
	C244.702606,145.473343 246.615128,146.503021 248.567993,147.435349 
	C255.318924,150.658371 255.319275,150.657608 253.324158,157.735519 
	C251.108185,165.596924 251.101654,165.326508 243.061707,165.521072 
	C239.741638,165.601395 235.210129,162.835068 233.268982,168.441376 
	C231.481735,173.603195 236.273315,174.601730 238.635590,176.798264 
	C245.066864,182.778290 245.226166,182.606964 240.952774,189.965576 
	C237.075287,196.642456 237.074295,196.645248 230.010773,194.126999 
	C228.444183,193.568497 226.871216,193.022583 225.329880,192.399902 
	C223.088745,191.494492 221.361115,191.657349 219.651611,193.770844 
	C217.793686,196.067856 218.150284,197.927917 219.665741,200.040009 
	C221.509079,202.609024 223.311508,205.208466 225.080719,207.829117 
	C225.927841,209.083908 226.867355,210.558151 225.866516,211.986374 
	C223.274902,215.684677 220.326965,219.378983 216.345215,221.339355 
	C213.357895,222.810120 211.327530,218.889832 208.708160,217.690948 
	C207.516418,217.145462 206.483673,216.234818 205.416245,215.439606 
	C203.734634,214.186844 202.145477,213.212967 200.060776,214.870361 
	C198.043106,216.474457 196.843964,218.180161 197.847626,220.857193 
	C199.015747,223.972809 200.116776,227.113983 201.214874,230.255295 
	C202.019943,232.558334 201.588409,234.154190 199.266174,235.633759 
	C189.001526,242.173721 189.054764,242.257126 181.111481,233.340668 
	C180.889969,233.092026 180.645142,232.861694 180.443787,232.597946 
	C179.068985,230.797134 177.694443,229.362213 175.020050,230.427170 
	C172.264481,231.524475 171.122147,233.373718 171.395111,236.214920 
	C171.680862,239.189041 171.996704,242.160492 172.327271,245.130005 
	C172.659958,248.118668 171.331131,249.580078 168.424881,250.444412 
	C157.397903,253.723816 157.424057,253.811752 152.185043,243.324203 
	C152.036270,243.026367 151.861160,242.738373 151.744385,242.428436 
	C150.774734,239.854935 148.974136,238.968643 146.244614,239.323090 
	C143.647186,239.660370 142.756042,241.040268 142.159897,243.491806 
	C141.067108,247.985687 141.315201,252.801270 139.000000,257.000000 
	C134.310745,257.000000 129.621490,257.000000 124.350403,256.608490 
	C123.086220,252.973511 122.165962,249.757553 121.786545,246.479034 
	C121.384308,243.003326 120.464767,240.337509 116.471817,239.826584 
	C112.334457,239.297180 112.159348,242.897568 111.016098,245.184830 
	C105.834709,255.551117 105.953453,255.423416 94.829742,252.172211 
	C91.050339,251.067566 90.084450,249.051910 90.885178,245.633072 
	C91.497803,243.017380 91.651253,240.386368 91.610870,237.710129 
	C91.571846,235.123749 90.158607,233.902115 87.896187,233.048355 
	C85.521286,232.152130 84.161812,233.214294 82.798080,234.910645 
	C80.714333,237.502670 78.500969,239.990204 76.358650,242.535568 
	C75.180237,243.935669 73.898773,244.499878 71.985420,243.863846 
	C61.749836,240.461380 60.012146,237.000763 63.666775,226.957428 
	C63.951164,226.175903 64.267509,225.403427 64.503052,224.607239 
	C65.127617,222.496109 64.837959,220.706100 62.819046,219.388306 
	C61.005280,218.204422 59.297199,217.642197 57.328365,219.103699 
	C54.659004,221.085236 51.885326,222.925644 49.194839,224.879532 
	C46.991249,226.479828 45.208393,226.381653 43.032223,224.461639 
	C33.678509,216.209030 33.619106,216.275253 40.563984,206.344025 
	C40.945187,205.798889 41.359715,205.277069 41.741642,204.732422 
	C42.749577,203.294983 43.416721,201.865219 42.089691,200.202240 
	C40.814503,198.604218 39.578785,196.967651 37.203075,197.462570 
	C35.907692,197.732422 34.644112,198.176575 33.386234,198.601440 
	C22.520988,202.271271 22.596373,202.234177 17.028912,192.212662 
	C15.483950,189.431732 15.370191,187.425735 18.140484,185.409958 
	C20.551399,183.655685 22.726957,181.569260 24.944906,179.561554 
	C26.438387,178.209656 26.926979,176.599716 26.037275,174.617508 
	C25.214041,172.783417 24.006485,171.583740 21.938604,171.487350 
	C20.610559,171.425461 19.271389,171.372177 17.948393,171.468582 
	C7.402481,172.237015 7.619383,172.181946 4.557772,162.210388 
	C3.224400,157.867645 4.348332,155.671448 8.435039,154.284698 
	C10.625196,153.541489 12.629859,152.267883 14.763161,151.336563 
	C17.117050,150.308929 17.815105,148.539612 17.572668,146.103348 
	C17.332819,143.693085 16.021461,142.693207 13.724759,142.331619 
	C9.466362,141.661194 5.239812,140.788483 0.999999,140.000000 
	C1.000000,134.645065 1.000000,129.290146 1.427368,123.411575 
	C5.451685,122.346283 9.076160,121.939568 12.635504,121.213539 
	C14.855574,120.760704 16.521812,119.517593 16.635336,116.837074 
	C16.731113,114.575493 16.013405,113.011986 13.887273,112.079872 
	C9.654222,110.224075 5.730962,107.591736 1.000000,107.000000 
	C1.000000,106.555557 1.000000,106.111107 1.222679,105.055374 
	C2.477364,101.310059 3.852731,98.240181 4.453369,95.025558 
	C5.183513,91.117836 7.383640,90.216873 10.848531,90.686005 
	C13.476690,91.041832 16.114641,91.367821 18.759066,91.548927 
	C21.327803,91.724838 22.579987,90.083649 23.510641,87.911308 
	C24.512918,85.571800 23.450550,84.193825 21.745235,82.812988 
	C19.291889,80.826439 17.002575,78.637962 14.560373,76.636803 
	C12.389284,74.857796 12.210639,73.081345 13.541859,70.557991 
	C19.136768,59.952732 19.065504,59.915184 30.077059,63.698776 
	C30.391548,63.806839 30.716593,63.889870 31.020699,64.021561 
	C33.295967,65.006851 35.189098,65.440521 37.096722,62.890282 
	C38.959423,60.400105 38.824818,58.580433 37.008770,56.280762 
	C35.055538,53.807381 33.383297,51.110271 31.618725,48.490391 
	C30.490398,46.815151 30.381252,45.350830 31.822090,43.555050 
	C39.517490,33.963932 40.271675,33.788837 50.267303,40.485168 
	C50.819759,40.855274 51.406342,41.181381 51.925484,41.592991 
	C53.525005,42.861206 55.065262,43.329884 56.814255,41.753639 
	C58.459530,40.270870 60.201622,38.930111 59.243660,36.316071 
	C58.614582,34.599453 58.019943,32.870247 57.396843,31.151402 
	C53.960102,21.671009 53.445148,23.492014 62.198002,18.453558 
	C68.607033,14.764290 68.645012,14.845304 73.448601,20.756556 
	C74.286789,21.788019 75.208435,22.751225 76.073692,23.761240 
	C77.784500,25.758268 79.524994,27.289526 82.489891,25.903084 
	C85.552788,24.470812 85.872803,21.942432 85.423477,19.210039 
	C84.990395,16.576483 84.665558,13.970428 84.615631,11.295453 
	C84.564461,8.554274 85.537682,7.141064 88.333633,6.376531 
	C102.329674,2.549425 99.110580,1.934648 104.806221,13.440550 
	C104.953804,13.738676 105.113098,14.033740 105.228958,14.344397 
	C106.191879,16.926432 108.118195,17.815138 110.747810,17.560169 
	C113.421844,17.300898 114.248566,15.569033 114.641373,13.186709 
	C115.314247,9.105786 116.202301,5.060342 117.000000,1.000000 
	C122.022095,1.000000 127.044189,1.000000 132.671844,1.379825 
	C133.968018,4.833809 134.797897,7.885180 135.305878,10.989228 
	C135.724197,13.545424 135.917084,15.981891 139.191589,16.530222 
	C142.781693,17.131393 144.199265,14.991137 145.460815,12.181423 
	C147.163284,8.389663 149.140625,4.721312 151.000000,1.000002 
M27.660555,107.669052 
	C26.407415,111.686043 25.125322,115.700462 26.178461,120.446907 
	C29.642611,117.879570 33.265274,118.896866 36.595596,118.369652 
	C39.379387,117.928947 40.300255,120.533546 40.339691,123.124619 
	C40.384823,126.090218 39.168324,129.275330 36.300163,128.850021 
	C32.730980,128.320740 28.003902,130.131332 25.674370,124.384811 
	C25.674370,127.463860 25.674370,129.443436 25.702854,131.468307 
	C25.702854,131.468307 25.735970,131.616821 25.835812,132.591782 
	C26.326376,187.769272 76.340683,236.213547 136.265610,231.460236 
	C193.222870,226.942337 229.696121,179.304413 230.562744,135.728165 
	C230.189590,138.775650 228.420059,141.454620 225.635620,140.817169 
	C222.502319,140.099808 219.626724,140.135376 216.674301,140.891724 
	C215.114166,137.363205 218.565781,136.486862 219.560532,134.385376 
	C218.647842,133.206253 216.029877,133.186157 216.902374,130.864517 
	C217.694778,128.755997 219.612534,129.458740 221.205215,129.457764 
	C224.428757,129.455765 227.652283,129.457153 230.994385,129.457153 
	C231.384048,125.424957 224.333542,127.160393 226.325928,122.208832 
	C224.865631,123.538208 226.472794,126.153412 223.827057,126.248871 
	C221.391922,126.336739 222.020859,123.875450 220.844727,122.511276 
	C220.623978,123.865097 220.543442,125.012711 220.234314,126.095039 
	C219.815567,127.561142 218.352432,128.000336 217.536316,127.106300 
	C215.813248,125.218735 216.847748,122.656204 216.639359,120.386902 
	C216.507065,118.946228 216.905212,117.532745 218.515854,117.326591 
	C221.314285,116.968422 224.147934,116.759521 226.969070,116.733963 
	C231.266907,116.695030 229.257492,121.015236 231.432785,123.668396 
	C230.386093,115.386673 230.540665,107.842621 227.002808,101.005692 
	C227.002808,101.005692 227.026825,101.032761 227.056183,100.202606 
	C226.660767,94.399048 223.985321,89.338921 221.600128,84.243858 
	C215.406799,71.014099 206.731400,59.651012 195.867767,50.362904 
	C194.009369,54.954266 193.377899,59.786938 189.717102,63.556396 
	C188.248749,62.496948 187.163162,61.765739 186.133987,60.962250 
	C181.296112,57.185268 181.357086,55.163952 186.244431,51.482525 
	C187.907440,50.229843 189.395050,48.744312 190.864014,47.452084 
	C190.396957,45.486629 189.028244,44.762848 187.816208,43.917835 
	C178.599823,37.492443 168.625839,32.604008 157.858368,29.399370 
	C150.699417,27.268707 146.826904,29.643322 145.346603,36.901508 
	C144.865189,39.261948 144.103973,41.015533 141.019760,39.641499 
	C141.283081,35.475193 143.113693,31.345816 139.823441,28.048456 
	C141.970291,25.307053 144.617371,28.433130 147.004257,26.967548 
	C141.562057,25.272991 136.403412,25.589531 131.274078,25.321131 
	C127.831863,25.141014 126.465157,26.514133 125.882439,29.622898 
	C125.393616,32.230774 124.703522,34.823971 123.835640,37.331276 
	C122.966446,39.842354 120.647835,40.459789 119.284378,38.453262 
	C117.039459,35.149548 114.920631,31.524733 114.869034,27.255907 
	C119.343803,25.754503 118.543671,30.524673 120.885162,31.545109 
	C121.719872,29.664642 122.546730,27.801872 123.462112,25.739660 
	C118.750549,24.962440 114.637756,25.739029 110.331230,27.631237 
	C112.772987,31.415113 115.953384,35.023479 112.501343,39.442879 
	C110.507935,41.994896 107.453217,42.381500 104.773239,41.099766 
	C99.520721,38.587685 100.907791,33.820858 101.833199,29.505537 
	C99.783028,28.872446 98.256607,29.548410 96.693054,30.071917 
	C79.630089,35.784878 64.696922,44.904297 52.654274,58.339691 
	C42.807400,69.325356 34.590641,81.361107 30.611094,96.596832 
	C28.844894,99.855591 27.929422,103.323967 27.660555,107.669052 
M121.546982,237.282959 
	C125.731041,240.155609 124.917343,244.965195 125.944893,249.006882 
	C126.651360,251.785629 128.085968,252.868301 130.816406,252.871628 
	C133.457703,252.874847 135.338684,252.076111 135.919479,249.242599 
	C136.768875,245.098694 137.674469,240.966293 138.560181,236.809891 
	C132.256622,235.833496 124.175041,236.007248 121.546982,237.282959 
M111.279572,235.298996 
	C105.823074,234.097260 100.366577,232.895508 94.184814,231.534027 
	C95.770744,235.931320 95.120720,239.892975 95.087898,243.830887 
	C95.064087,246.687881 95.872520,248.548523 98.902374,249.315994 
	C102.091652,250.123856 103.991707,249.002106 105.246979,246.136993 
	C106.900452,242.363007 108.705971,238.665207 111.279572,235.298996 
M186.686157,35.410713 
	C186.752609,31.844275 188.622986,28.756359 189.350021,25.368288 
	C190.113037,21.812578 185.766769,17.347187 182.908386,19.090897 
	C178.837097,21.574509 174.890274,25.248102 173.386963,29.480497 
	C172.235199,32.723145 177.821655,32.762157 180.088013,34.672306 
	C181.462112,35.830441 183.133026,36.663494 184.740494,37.509834 
	C186.253632,38.306519 186.891464,37.642414 186.686157,35.410713 
M155.999252,25.200256 
	C157.733780,25.523289 159.342926,26.643482 161.638809,25.993013 
	C159.428528,21.908957 159.958374,17.656258 160.534454,13.421683 
	C160.944595,10.406834 159.089142,9.275392 156.707855,8.497457 
	C154.721024,7.848381 152.698013,7.405281 151.454224,9.681231 
	C149.261276,13.693998 147.187622,17.771969 144.801697,22.323032 
	C148.591980,23.293653 151.925430,24.147289 155.999252,25.200256 
M58.116821,210.874313 
	C55.006699,207.773911 52.167858,204.346481 47.800724,201.975647 
	C46.531124,206.229858 43.676994,209.075012 41.565781,212.404007 
	C40.004051,214.866562 40.787571,216.783188 42.607208,218.593231 
	C44.284370,220.261520 46.182858,221.121765 48.388741,219.689957 
	C51.717003,217.529617 54.860229,215.096939 58.619694,213.628372 
	C60.080372,213.057800 59.149403,212.061554 58.116821,210.874313 
M47.633362,56.962467 
	C49.539230,54.200718 52.982319,52.615276 54.013664,49.015427 
	C50.514313,46.703304 47.207222,44.544350 43.928169,42.343616 
	C41.157318,40.483971 39.309246,42.159912 37.467892,43.950871 
	C35.699913,45.670460 35.242920,47.485760 36.766777,49.671246 
	C39.099998,53.017506 41.322392,56.441048 43.434059,59.596062 
	C45.489887,59.522503 46.187969,58.262669 47.633362,56.962467 
M208.424286,200.069824 
	C206.124023,203.017029 202.764359,205.079239 200.848694,208.865189 
	C204.893829,210.537506 208.289902,212.813217 211.679688,215.117432 
	C213.753464,216.527069 215.705719,216.103149 217.399872,214.153534 
	C219.024002,212.284500 220.221741,210.579315 218.478165,208.023468 
	C216.093903,204.528473 213.967773,200.857361 211.794846,197.364365 
	C210.180267,197.630203 209.666931,198.782257 208.424286,200.069824 
M75.083870,222.564987 
	C73.303513,221.949234 71.900375,220.119156 69.233994,220.927704 
	C69.381386,224.943787 67.182808,228.381577 65.998421,232.151382 
	C65.193092,234.714691 66.299149,236.232910 68.407127,237.441254 
	C70.570984,238.681610 72.619743,239.453156 74.643013,237.189087 
	C77.562378,233.922256 80.529976,230.698502 83.794434,227.107147 
	C80.945992,225.631317 78.324196,224.272919 75.083870,222.564987 
M37.762745,192.936172 
	C39.056324,192.647919 40.168732,191.970490 39.330254,190.567780 
	C36.925739,186.545181 34.861267,182.269974 31.430271,178.345123 
	C29.591961,181.822189 27.108452,183.978958 24.534321,186.062241 
	C22.179380,187.968124 19.836868,189.705627 21.975916,193.445450 
	C24.138210,197.225952 26.878075,196.529144 30.025570,195.373917 
	C32.353642,194.519455 34.748539,193.847046 37.762745,192.936172 
M219.355209,185.263977 
	C219.016083,186.672882 219.553040,187.381210 220.990005,187.725143 
	C224.205215,188.494675 227.410721,189.326706 230.573593,190.286728 
	C233.527344,191.183273 235.292419,189.909973 236.677582,187.473068 
	C238.045013,185.067307 237.667542,183.102692 235.571640,181.323425 
	C232.694565,178.881027 229.880554,176.364349 226.891022,173.749603 
	C223.349411,176.984863 222.406479,181.467194 219.355209,185.263977 
M71.803947,26.617596 
	C71.255920,25.998428 70.650658,25.420488 70.169823,24.752920 
	C68.142311,21.937983 65.835594,21.782131 62.867085,23.452013 
	C59.645615,25.264189 59.639008,27.482098 60.888592,30.517756 
	C62.303699,33.955517 63.316235,37.558990 64.642937,41.504120 
	C69.009209,38.552429 73.007156,35.849728 77.158958,33.043022 
	C75.206123,30.699862 73.729630,28.928259 71.803947,26.617596 
M201.906342,41.484020 
	C199.836227,42.641159 197.766129,43.798298 195.505798,45.061771 
	C199.496628,48.555840 203.173538,51.775063 206.989944,55.116421 
	C209.630142,51.283085 211.819641,47.954845 214.171341,44.745445 
	C215.592026,42.806599 215.681519,41.133381 213.873032,39.471989 
	C212.033310,37.781914 210.309906,35.686321 207.439682,37.689350 
	C205.801239,38.832764 204.147537,39.954315 201.906342,41.484020 
M166.723724,239.655518 
	C166.391220,236.594482 166.431717,233.460587 165.090317,230.155777 
	C160.005966,231.605133 155.163849,232.985443 149.911041,234.482819 
	C153.067093,236.866074 154.472717,239.854172 155.937088,242.836349 
	C157.231689,245.472824 158.206146,248.452454 162.378098,247.569366 
	C166.547272,246.686844 167.054642,243.945251 166.723724,239.655518 
M129.213959,8.412325 
	C128.280197,5.293413 125.824394,5.141838 123.210526,5.371295 
	C120.444473,5.614111 119.887306,7.795800 119.404785,9.931854 
	C118.583092,13.569430 117.849106,17.226818 117.044136,21.037464 
	C122.525658,21.037464 127.546318,21.037464 133.122955,21.037464 
	C130.834824,16.945948 130.394363,12.986984 129.213959,8.412325 
M100.821892,17.498793 
	C99.871834,15.576674 98.931374,13.649733 97.969261,11.733671 
	C96.801369,9.407803 94.818871,9.800131 92.810097,10.173568 
	C90.820694,10.543405 89.297409,11.502490 89.243881,13.646412 
	C89.130714,18.178244 89.209419,22.714865 89.209419,27.199053 
	C92.720459,27.743763 94.947807,25.931343 97.487915,25.392218 
	C103.828979,24.046354 103.803375,23.925724 100.821892,17.498793 
M185.119949,232.367493 
	C186.893204,235.078812 188.897842,236.227631 192.164505,234.326950 
	C195.275650,232.516785 195.622894,230.336990 194.417648,227.263382 
	C193.109177,223.926529 192.062103,220.487167 190.617355,216.263138 
	C186.155334,219.278961 182.179749,221.966019 178.115723,224.712845 
	C180.635818,227.460159 182.646988,229.652695 185.119949,232.367493 
M33.514542,76.181541 
	C34.065022,74.501030 35.917236,73.343918 35.428120,70.697052 
	C31.691284,70.192726 28.121849,68.496696 24.420950,67.154022 
	C22.073296,66.302292 20.517963,67.084755 19.466871,69.096466 
	C18.412273,71.114891 16.805288,73.254837 19.147926,75.399574 
	C22.285065,78.271698 25.527842,81.028442 28.684553,83.798996 
	C31.374847,81.827477 31.887493,79.073952 33.514542,76.181541 
M26.058754,165.834335 
	C25.101831,161.522705 24.244652,157.175949 21.943817,153.142471 
	C18.213528,154.987793 14.794785,156.668457 11.385915,158.368912 
	C9.015790,159.551208 8.694787,161.493759 9.293140,163.857529 
	C9.822171,165.947433 10.654485,167.825562 13.131863,167.705460 
	C17.396040,167.498734 21.779465,168.270386 26.058754,165.834335 
M248.105103,156.994690 
	C248.761414,155.044998 248.512451,153.360947 246.553696,152.313889 
	C242.946518,150.385681 239.353714,148.410156 234.700668,147.060501 
	C233.520081,151.692215 232.413452,156.033737 231.206573,160.768539 
	C235.568481,161.155869 239.151733,161.517990 242.742340,161.779068 
	C245.643372,161.990005 247.535461,160.783066 248.105103,156.994690 
M233.516373,64.723427 
	C232.623932,63.121098 231.753891,61.183018 229.560593,61.552513 
	C224.900681,62.337540 220.509903,64.009140 215.895660,65.928947 
	C218.269775,70.530464 220.579361,74.396919 223.668625,78.185867 
	C226.883514,75.253883 229.685272,72.725197 232.454880,70.161766 
	C233.875732,68.846672 234.813110,67.353424 233.516373,64.723427 
M242.941940,119.765594 
	C240.690796,119.638184 238.543335,118.173111 235.776489,119.299988 
	C235.629181,123.637825 235.676346,128.003906 236.504669,132.661667 
	C240.730820,131.899399 244.627808,131.290054 248.479034,130.466690 
	C250.777557,129.975281 251.559204,128.196503 251.600006,125.961311 
	C251.642624,123.626404 251.247116,121.567352 248.628418,120.871246 
	C247.026978,120.445541 245.373093,120.217010 242.941940,119.765594 
M229.918213,91.814697 
	C229.505630,96.356064 232.413330,99.821922 233.217819,104.385246 
	C237.355957,102.443253 240.805710,100.849968 244.231689,99.207100 
	C246.352814,98.189957 247.038437,96.476944 246.410370,94.235405 
	C245.847229,92.225502 245.034927,90.271111 242.580399,90.252907 
	C238.474075,90.222443 234.288376,89.473633 229.918213,91.814697 
M19.351263,127.734825 
	C16.319738,124.011345 12.665357,126.719803 9.313280,126.868858 
	C6.214917,127.006630 4.114705,128.321365 4.108817,132.093323 
	C4.102806,135.944427 6.411099,136.652969 9.391525,137.285995 
	C20.185022,139.578445 20.174320,139.628830 19.351263,127.734825 
M11.247005,96.350990 
	C7.791131,97.944138 6.216471,101.098709 8.289107,103.939728 
	C10.946928,107.582878 15.713638,109.664894 19.971750,109.622856 
	C23.394373,109.589066 22.187792,104.773888 23.168894,102.134468 
	C24.487432,98.587242 23.255400,96.785950 19.480841,96.641693 
	C17.001696,96.546936 14.525211,96.382568 11.247005,96.350990 
M105.303902,35.781380 
	C106.089584,37.346939 107.222168,38.079926 108.801163,36.904381 
	C109.853333,36.121044 109.784836,34.898579 109.404213,33.765430 
	C109.070869,32.773029 108.368904,32.023273 107.259308,32.098995 
	C105.327278,32.230835 104.889061,33.514927 105.303902,35.781380 
z"/>
<path fill="#000000" opacity="1.000000" stroke="none" 
	d="
M25.688612,131.445648 
	C29.629091,130.040985 33.924656,131.614716 37.888630,129.982086 
	C38.807159,129.603775 40.102386,130.297073 40.046936,131.466339 
	C39.779663,137.101852 43.430561,142.897583 39.309040,148.194809 
	C39.981682,150.161621 43.629406,148.357193 43.024292,151.337677 
	C42.600132,153.426880 40.564556,153.205933 38.970795,153.526993 
	C38.157543,153.690811 37.341331,153.914093 36.576336,154.230927 
	C32.510956,155.914612 29.933983,155.012222 29.288649,150.290955 
	C28.667450,145.746246 30.106771,144.133331 35.333839,143.768463 
	C36.307396,143.700500 36.307396,143.700485 38.305439,141.567474 
	C35.163483,139.479584 31.795740,141.378815 28.602978,140.946884 
	C26.588963,138.407288 27.520990,135.055069 25.924850,132.010345 
	C25.735970,131.616821 25.702854,131.468307 25.688612,131.445648 
z"/>
<path fill="#000000" opacity="1.000000" stroke="none" 
	d="
M106.986839,212.008957 
	C105.181686,211.178955 103.439194,210.155289 101.562035,209.547791 
	C69.521233,199.178635 45.783337,168.452011 43.281319,135.012375 
	C40.089142,92.348732 68.842979,54.817665 108.373123,45.270359 
	C155.871902,33.798466 204.328384,65.163269 212.469406,113.124283 
	C218.816025,150.514069 201.510864,186.418060 168.232910,204.184921 
	C151.697891,213.012848 133.920670,215.206665 115.460281,212.645905 
	C112.840530,212.282486 110.189537,212.144241 107.253433,211.946487 
	C106.953857,211.991196 106.986839,212.008957 106.986839,212.008957 
M53.114071,99.576523 
	C47.541775,114.398941 45.806824,129.556107 49.441208,145.095764 
	C58.633732,184.400574 94.672913,214.006577 138.549149,208.355927 
	C185.198074,202.348236 215.699890,159.520416 207.582840,113.052612 
	C200.162567,70.573730 156.046753,40.339130 113.974579,48.930290 
	C84.958977,54.855289 65.115334,71.950493 53.114071,99.576523 
z"/>
<path fill="#000000" opacity="1.000000" stroke="none" 
	d="
M27.987709,107.425575 
	C31.081867,102.393799 35.184402,107.042648 39.027336,105.959206 
	C37.518738,101.663872 32.463959,100.682304 31.058441,96.313141 
	C34.533714,93.572227 39.035362,94.456932 42.915165,92.797539 
	C42.441887,90.461723 40.416756,90.014038 38.920197,89.325096 
	C34.610401,87.341049 35.551792,84.786919 37.626400,81.770767 
	C39.654392,78.822388 42.175152,77.376907 44.989700,80.209274 
	C46.935432,82.167328 49.403610,82.245354 51.547028,83.193199 
	C51.737514,86.993706 48.236610,85.826820 46.365688,87.271225 
	C48.719616,91.654808 47.418327,95.150063 43.430050,97.892433 
	C42.204678,98.735023 41.771141,99.989113 42.380421,101.404999 
	C44.338680,105.955765 42.146553,110.120338 41.209221,114.396393 
	C40.864372,115.969543 39.569061,116.276497 38.180374,116.511208 
	C31.874056,117.577065 27.806206,114.142632 27.987709,107.425575 
z"/>
<path fill="#000000" opacity="1.000000" stroke="none" 
	d="
M204.777451,194.042770 
	C203.019363,195.977692 201.949905,198.191391 199.433838,198.947556 
	C196.287399,197.160919 197.207916,193.686707 196.178864,191.056549 
	C191.895767,192.459869 191.542694,192.991974 192.538345,196.727234 
	C192.794373,197.687714 193.193695,198.609421 193.513351,199.553635 
	C194.095032,201.271835 195.146637,203.209747 193.573456,204.690903 
	C191.734375,206.422409 189.755051,204.978485 188.107758,203.986145 
	C185.717255,202.546082 182.842682,201.897491 180.901062,199.782806 
	C180.971222,199.354126 180.957779,198.791733 181.083786,198.758530 
	C189.164780,196.628738 190.565170,187.891708 196.289307,183.280243 
	C199.663651,180.561813 201.631378,180.005615 204.479156,183.105820 
	C205.033981,183.709793 205.779907,184.135239 206.419846,184.664597 
	C207.761597,185.774506 210.197159,186.760590 208.618835,188.862656 
	C206.950836,191.084137 205.440979,188.625214 204.019287,187.806259 
	C202.748795,187.074402 201.622208,186.092697 200.207504,185.056778 
	C198.624039,187.542099 200.682785,189.329483 200.535126,190.981079 
	C201.965637,192.513489 206.352524,188.302124 204.777451,194.042770 
z"/>
<path fill="#000000" opacity="1.000000" stroke="none" 
	d="
M222.029297,92.670441 
	C225.367355,94.604187 225.286530,96.406837 222.200485,98.147575 
	C222.056168,98.228989 221.891266,98.273529 221.745560,98.352867 
	C213.497711,102.843567 213.510132,102.839409 210.351349,93.887444 
	C209.973709,92.817200 209.373550,91.825478 208.865585,90.774727 
	C211.340073,87.388252 215.210159,87.019302 218.577560,85.907341 
	C221.414490,84.970551 221.861908,87.200356 221.768860,89.405960 
	C221.723831,90.472961 219.416199,91.511803 222.029297,92.670441 
z"/>
<path fill="#000000" opacity="1.000000" stroke="none" 
	d="
M226.990509,100.992683 
	C227.512939,103.448837 226.761566,105.485802 224.437149,107.040070 
	C226.614334,108.282242 229.192505,108.862236 228.750443,111.605125 
	C228.368866,113.972794 225.854080,113.517044 224.282532,114.059067 
	C217.058289,116.550728 213.074722,113.040977 213.869431,105.139778 
	C214.010071,103.741493 214.773254,103.019005 215.994415,102.759071 
	C219.375809,102.039330 222.623016,100.575386 226.609467,100.952133 
	C227.026825,101.032761 227.002808,101.005692 226.990509,100.992683 
z"/>
<path fill="#000000" opacity="1.000000" stroke="none" 
	d="
M175.779022,38.947155 
	C176.126907,40.038773 176.350357,40.834644 176.589615,41.686787 
	C178.207733,42.338963 179.223068,39.050179 180.867172,40.906422 
	C182.302704,42.527142 180.875122,43.973278 180.169067,45.381760 
	C179.424622,46.866863 178.606918,48.317200 177.775879,49.756561 
	C176.012161,52.811295 173.969971,53.266216 172.655975,49.653255 
	C171.434830,46.295628 168.083786,50.913158 167.044998,46.809261 
	C167.619278,44.272053 169.467422,41.356812 171.460327,38.530361 
	C172.856522,36.550217 174.321014,36.383892 175.779022,38.947155 
z"/>
<path fill="#000000" opacity="1.000000" stroke="none" 
	d="
M170.983139,213.946106 
	C170.657745,215.236572 170.457336,216.575165 169.982651,217.808151 
	C168.751266,221.006653 166.212906,222.523895 162.921219,222.239655 
	C159.527512,221.946625 157.744980,219.531174 156.857147,216.433548 
	C155.918381,213.158173 157.453186,210.778534 160.148361,209.373123 
	C163.057007,207.856369 165.997147,208.304871 168.363449,210.792648 
	C169.161591,211.631790 169.797287,212.625412 170.754913,213.763367 
	C171.002594,213.978287 170.983139,213.946106 170.983139,213.946106 
M165.352005,214.063812 
	C164.336716,212.980225 163.163574,212.365417 161.933350,213.591202 
	C160.971848,214.549225 161.280441,215.733353 161.962036,216.777023 
	C162.657532,217.841949 163.647537,218.518097 164.894730,217.928467 
	C166.440216,217.197845 166.348145,215.899292 165.352005,214.063812 
z"/>
<path fill="#000000" opacity="1.000000" stroke="none" 
	d="
M77.405319,48.361855 
	C76.070137,46.057438 74.887878,44.084949 74.973953,41.892849 
	C76.901100,39.848389 78.623245,41.422783 80.301620,41.623993 
	C81.762161,40.639702 79.750664,37.997421 82.253410,37.651661 
	C84.473831,37.344910 84.811256,39.401428 85.780403,40.613815 
	C86.395538,41.383347 86.960938,42.248486 87.311333,43.161797 
	C87.976494,44.895531 90.335655,46.507904 88.601379,48.498550 
	C86.805748,50.559628 84.652260,48.936054 82.760750,47.981194 
	C81.944862,49.495983 84.232681,51.755241 81.543190,52.300522 
	C78.804611,52.855751 78.756660,50.067791 77.405319,48.361855 
z"/>
<path fill="#000000" opacity="1.000000" stroke="none" 
	d="
M145.274048,214.114471 
	C147.550842,213.307632 148.339172,215.524841 150.115433,215.793579 
	C151.429398,215.297409 149.998718,212.661423 152.314957,212.680161 
	C154.391068,212.696960 154.679794,214.346619 155.124863,215.651443 
	C156.132095,218.604416 156.661652,221.653793 156.256683,224.554398 
	C153.185989,226.165161 151.997681,223.616150 150.263702,222.650055 
	C148.649384,223.645721 150.542633,226.252182 147.308136,226.875275 
	C145.698029,222.951523 142.835800,219.261017 145.274048,214.114471 
z"/>
<path fill="#000000" opacity="1.000000" stroke="none" 
	d="
M213.838348,85.403595 
	C210.325455,86.906853 207.355392,87.018761 204.993896,84.039444 
	C203.148239,81.710922 202.921524,79.057587 204.417892,76.615700 
	C206.180344,73.739525 209.153168,73.356010 212.307465,73.626007 
	C215.080933,73.863411 216.339264,75.661926 217.155411,77.963394 
	C218.314575,81.232201 216.439713,83.303741 213.838348,85.403595 
M208.987442,82.306435 
	C211.382065,82.527863 212.948685,81.540283 212.677704,79.044960 
	C212.538910,77.766869 211.056168,77.326668 209.890076,77.839607 
	C208.046249,78.650673 206.779327,79.885468 208.987442,82.306435 
z"/>
<path fill="#000000" opacity="1.000000" stroke="none" 
	d="
M60.519783,70.516609 
	C55.554050,70.258575 53.812210,66.163628 51.367485,63.104774 
	C50.395061,61.888081 51.724003,60.713097 53.371475,60.803223 
	C54.477921,60.863754 55.310783,62.185062 56.564877,61.618858 
	C56.784592,61.289696 57.060287,61.042255 57.128517,60.746891 
	C57.500965,59.134480 54.419682,57.394897 57.005924,56.010468 
	C59.037136,54.923145 60.209541,57.048122 61.542145,58.170998 
	C62.171436,58.701252 62.787674,59.275696 63.288712,59.923748 
	C64.496132,61.485466 67.473389,62.525570 65.799492,65.096161 
	C64.097702,67.709595 62.519936,63.694103 60.489998,64.578712 
	C58.450317,66.475540 62.514381,68.304756 60.519783,70.516609 
z"/>
<path fill="#000000" opacity="1.000000" stroke="none" 
	d="
M94.050201,44.937790 
	C92.221649,47.186619 91.081963,46.005932 90.238487,44.362309 
	C89.560585,43.041325 89.048065,41.614323 88.633598,40.184662 
	C88.117126,38.403137 86.218697,36.554966 88.024544,34.736881 
	C89.938995,32.809475 91.617188,35.385124 93.523033,35.587509 
	C94.529251,34.465076 93.135254,31.827694 95.703346,31.844481 
	C97.686752,31.857443 97.523666,33.928703 98.297920,35.083664 
	C98.753136,35.762711 99.095192,36.561108 99.302498,37.354343 
	C99.829887,39.372459 101.599686,41.556408 100.043747,43.460243 
	C98.119354,45.814903 96.294014,42.590099 94.101822,42.630417 
	C94.101822,43.342796 94.101822,43.983231 94.050201,44.937790 
z"/>
<path fill="#000000" opacity="1.000000" stroke="none" 
	d="
M59.545197,189.746704 
	C61.105885,187.736328 57.963009,187.285141 58.272270,185.558609 
	C60.761520,184.007111 63.517323,185.281830 65.371887,188.910812 
	C66.449951,191.020340 62.221752,196.968201 58.541199,198.519608 
	C56.248798,199.485886 53.342983,196.790939 51.485020,191.975479 
	C53.952320,191.494720 53.952320,191.494720 56.157341,192.610596 
	C56.236851,191.234756 53.864876,190.200943 55.492958,188.694946 
	C57.146645,187.165237 58.118107,189.069870 59.545197,189.746704 
z"/>
<path fill="#000000" opacity="1.000000" stroke="none" 
	d="
M106.935120,211.985138 
	C110.500992,213.343231 112.787697,215.595459 112.321571,219.778824 
	C111.936813,223.231949 110.464798,225.812653 106.735733,226.292801 
	C103.577904,226.699402 101.041039,225.308823 100.068977,222.352798 
	C98.984756,219.055725 99.333527,215.717911 102.612656,213.568512 
	C103.676697,212.871048 105.065956,212.669739 106.646652,212.125229 
	C106.986839,212.008957 106.953857,211.991196 106.935120,211.985138 
M104.620651,221.722000 
	C107.094154,222.939911 108.052277,221.440948 108.291870,219.406372 
	C108.472183,217.875214 107.367653,216.703323 105.837021,217.069061 
	C103.570480,217.610626 103.237251,219.302017 104.620651,221.722000 
z"/>
<path fill="#000000" opacity="1.000000" stroke="none" 
	d="
M50.853428,182.169586 
	C45.360619,183.978394 42.002247,182.699997 40.897411,178.725922 
	C39.939167,175.279129 42.040409,171.521973 45.496994,170.501556 
	C49.161369,169.419800 52.799129,171.191864 53.939938,174.602753 
	C55.007973,177.796066 53.504906,180.022903 50.853428,182.169586 
M45.296387,175.720947 
	C44.512249,177.069931 44.481026,178.310913 46.092026,178.997177 
	C47.499012,179.596573 48.676464,178.957565 49.603233,177.874268 
	C50.290775,177.070602 50.693104,176.082062 49.983982,175.162537 
	C48.563057,173.319992 47.098083,174.260330 45.296387,175.720947 
z"/>
<path fill="#000000" opacity="1.000000" stroke="none" 
	d="
M163.606018,45.183662 
	C156.493149,45.189167 153.617386,41.854301 155.623322,36.533398 
	C156.753891,33.534496 159.018051,31.827423 162.067474,31.990038 
	C164.790375,32.135242 167.337997,33.496807 168.040833,36.474968 
	C168.937759,40.275566 167.829285,43.376911 163.606018,45.183662 
M164.209763,38.469090 
	C164.098709,36.684498 163.350861,35.533836 161.380417,36.066658 
	C160.143570,36.401112 159.561432,37.485645 159.426102,38.713600 
	C159.308029,39.785229 159.690689,40.763519 160.747223,41.148918 
	C162.665390,41.848610 163.438873,40.536453 164.209763,38.469090 
z"/>
<path fill="#000000" opacity="1.000000" stroke="none" 
	d="
M129.181229,29.358871 
	C131.461975,25.311480 133.497192,25.600933 135.294495,29.249680 
	C136.100113,30.885218 136.730606,32.616482 137.323669,34.344421 
	C137.839890,35.848415 139.281906,37.528698 137.836685,38.971695 
	C136.120468,40.685268 134.962402,38.645245 133.634995,37.819870 
	C132.348404,37.019867 131.081055,37.304890 129.996445,38.344036 
	C128.778061,39.511353 127.440994,39.715958 125.762314,38.963623 
	C125.451485,35.303276 128.311478,32.856598 129.181229,29.358871 
z"/>
<path fill="#000000" opacity="1.000000" stroke="none" 
	d="
M132.417114,226.713867 
	C132.113205,228.155731 132.677658,230.465195 130.539520,229.465424 
	C127.979393,228.268326 125.738243,229.625366 123.045776,229.708862 
	C123.096176,226.722244 123.272972,223.831604 119.929611,221.595963 
	C123.557747,220.614410 126.181496,219.176620 127.301758,215.590317 
	C129.652939,218.272583 131.344727,221.040909 134.748001,221.211411 
	C134.669556,223.507645 132.303955,224.352020 132.417114,226.713867 
z"/>
<path fill="#000000" opacity="1.000000" stroke="none" 
	d="
M218.517273,152.547516 
	C216.768402,154.445496 215.658768,153.383362 214.713135,152.097702 
	C213.295593,150.170380 213.279678,148.188324 214.396362,146.015869 
	C216.203125,142.500870 219.094299,142.066467 222.440964,142.959290 
	C225.931488,143.890488 227.960480,146.192078 227.518448,149.902100 
	C227.139725,153.080597 225.537033,155.048355 222.061264,153.987946 
	C221.384720,152.573715 221.936523,151.741882 222.523911,150.906219 
	C223.382431,149.684875 223.733810,148.454788 222.223343,147.479401 
	C221.380814,146.935333 220.395844,146.508987 219.389648,146.962646 
	C217.691727,147.728180 218.146484,148.990921 218.648636,150.331757 
	C218.861221,150.899368 218.681396,151.613937 218.517273,152.547516 
z"/>
<path fill="#000000" opacity="1.000000" stroke="none" 
	d="
M207.026138,171.037140 
	C206.956406,170.065582 206.492676,168.462082 206.878647,168.221420 
	C210.270752,166.106476 211.347473,162.981186 210.440247,158.372391 
	C215.666077,160.573532 218.273712,164.020996 220.463562,167.541763 
	C221.692062,169.516922 219.868103,170.879379 217.655548,170.919937 
	C214.340530,170.980728 211.023773,170.946487 207.342484,170.979416 
	C206.977219,171.006180 207.026138,171.037140 207.026138,171.037140 
z"/>
<path fill="#000000" opacity="1.000000" stroke="none" 
	d="
M43.955254,74.544495 
	C43.334484,70.884064 44.697884,68.677536 47.775707,67.571114 
	C48.903976,67.165527 50.206039,67.123436 50.928787,68.277054 
	C51.701874,69.511024 51.125729,70.520729 49.845886,71.061264 
	C48.473511,71.640877 47.437019,72.419868 48.203358,74.059967 
	C48.727631,75.182014 49.782425,75.826057 51.015106,75.845009 
	C52.797951,75.872429 53.225189,74.716347 53.061069,73.161209 
	C52.901512,71.649345 53.905991,70.929428 55.125832,70.914932 
	C56.815407,70.894875 57.215630,72.339233 57.355762,73.695770 
	C57.607758,76.135216 56.200718,77.758293 54.421410,79.125198 
	C52.305614,80.750595 50.135201,80.506920 47.872780,79.361679 
	C45.958733,78.392799 44.890945,76.783554 43.955254,74.544495 
z"/>
<path fill="#000000" opacity="1.000000" stroke="none" 
	d="
M209.319778,68.613602 
	C207.927994,71.410370 206.654175,71.389915 205.630676,68.788353 
	C205.130020,67.515800 204.825897,66.044083 203.114670,66.204041 
	C201.298187,66.373833 200.034164,67.356415 200.005585,69.422745 
	C200.743393,71.308861 204.017075,70.823349 203.800766,73.686668 
	C201.677612,75.777687 199.622635,74.780212 197.798706,73.128250 
	C195.945358,71.449615 195.035461,69.316322 196.209595,66.841675 
	C197.684860,63.732323 200.270584,61.666424 203.643250,61.898972 
	C207.164108,62.141743 209.228455,64.563484 209.319778,68.613602 
z"/>
<path fill="#000000" opacity="1.000000" stroke="none" 
	d="
M65.966476,196.523071 
	C65.636772,192.939514 68.192673,193.365829 69.880043,193.768219 
	C73.564804,194.646912 74.750748,197.529800 74.112854,201.014008 
	C73.390518,204.959412 69.194633,207.576920 65.481842,206.412399 
	C61.904758,205.290451 60.616539,202.898849 62.091839,199.284134 
	C65.038414,198.529800 66.498558,205.868484 69.581100,200.613113 
	C71.557030,197.244385 67.575684,197.871567 65.966476,196.523071 
z"/>
<path fill="#000000" opacity="1.000000" stroke="none" 
	d="
M48.059639,164.482300 
	C47.730591,167.361847 41.700584,171.839493 38.687958,171.178284 
	C34.762405,170.316696 34.752972,166.664734 34.017014,163.227661 
	C37.517563,162.840973 40.604141,160.196671 43.730824,163.866486 
	C44.373257,164.620499 46.473942,164.132080 48.059639,164.482300 
z"/>
<path fill="#000000" opacity="1.000000" stroke="none" 
	d="
M78.375710,215.724762 
	C76.741364,214.513733 74.843147,213.321304 77.372040,211.914825 
	C78.975700,211.022919 78.715195,209.336411 80.124008,208.085632 
	C82.857437,208.892395 85.573906,208.408264 87.360489,205.561310 
	C90.009727,208.391815 89.580299,209.531799 85.437103,215.636047 
	C83.057762,219.141541 80.957016,216.896225 78.375710,215.724762 
z"/>
<path fill="#000000" opacity="1.000000" stroke="none" 
	d="
M90.095566,215.866638 
	C89.921333,215.302078 89.782883,214.735138 89.888000,214.685684 
	C92.856972,213.288269 95.850517,211.943039 99.209152,210.422150 
	C100.064468,215.488983 97.894012,219.406998 95.200058,222.001938 
	C92.936089,224.182739 89.940887,220.817764 87.312347,220.014709 
	C87.383247,217.149872 88.969193,217.308350 90.760963,217.576523 
	C91.650345,217.709625 91.305557,217.133987 90.980164,216.767654 
	C90.762482,216.522552 90.491821,216.324509 90.095566,215.866638 
z"/>
<path fill="#000000" opacity="1.000000" stroke="none" 
	d="
M181.248642,213.880585 
	C179.344116,214.675751 177.640244,213.728745 178.280502,212.499176 
	C180.131088,208.945251 177.696640,206.906006 176.262131,204.431763 
	C175.638351,203.355850 175.239746,202.206894 176.406921,201.304962 
	C177.835098,200.201370 178.853073,201.071304 179.711395,202.253159 
	C181.607635,204.864166 182.738800,208.406296 187.101562,207.791321 
	C187.130219,211.993515 183.474472,212.006760 181.248642,213.880585 
z"/>
<path fill="#000000" opacity="1.000000" stroke="none" 
	d="
M206.951660,170.992584 
	C209.411346,172.616119 211.911987,174.230530 214.374161,175.901672 
	C215.345291,176.560806 216.301788,177.301392 215.464111,178.723343 
	C214.810196,179.833405 213.725586,179.938324 212.908951,179.349640 
	C209.257309,176.717270 205.690048,175.875656 201.472412,180.935852 
	C200.976364,175.267899 202.756378,172.694092 206.667297,171.033600 
	C207.026138,171.037140 206.977219,171.006180 206.951660,170.992584 
z"/>
<path fill="#000000" opacity="1.000000" stroke="none" 
	d="
M171.015442,213.991531 
	C170.329102,212.140076 169.601212,210.285461 168.941315,208.406952 
	C168.535370,207.251297 168.373337,206.068115 169.749710,205.393829 
	C170.853424,204.853119 171.755569,205.385971 172.309555,206.278183 
	C173.890137,208.823822 175.401749,211.413864 176.879715,214.020889 
	C177.596436,215.285141 177.127045,216.407974 175.882919,216.902542 
	C173.479050,217.858093 172.939743,215.307587 171.258453,214.157944 
	C170.983139,213.946106 171.002594,213.978287 171.015442,213.991531 
z"/>
<path fill="#000000" opacity="1.000000" stroke="none" 
	d="
M74.187592,46.928848 
	C75.519241,48.852272 76.663017,50.473461 77.694626,52.163128 
	C78.333786,53.210007 78.581306,54.406757 77.408127,55.267811 
	C76.139366,56.199013 75.210838,55.308952 74.496887,54.374470 
	C73.192970,52.667770 71.915726,50.930492 70.772743,49.114468 
	C69.955109,47.815376 68.241058,46.277462 70.072784,44.829632 
	C72.082100,43.241432 72.749916,45.800076 74.187592,46.928848 
z"/>
<path fill="#000000" opacity="1.000000" stroke="none" 
	d="
M77.235474,208.156616 
	C76.241646,209.523285 75.633194,210.846024 74.602959,211.560898 
	C73.032097,212.650940 71.667007,212.065567 71.547005,210.040634 
	C71.382179,207.259323 76.453773,201.718933 79.660835,201.197418 
	C80.662727,204.011459 78.482399,205.755844 77.235474,208.156616 
z"/>
<path fill="#000000" opacity="1.000000" stroke="none" 
	d="
M220.536041,160.499405 
	C217.372269,159.114960 213.706161,159.509338 211.601395,156.397278 
	C214.665848,154.507736 222.135208,155.688110 223.878311,158.038391 
	C224.431992,158.784958 224.488312,159.595184 224.012543,160.306595 
	C223.142700,161.607300 221.973206,160.807724 220.536041,160.499405 
z"/>
<path fill="#000000" opacity="1.000000" stroke="none" 
	d="
M153.900543,37.075760 
	C153.586014,38.200451 153.488251,39.051750 153.152817,39.795929 
	C152.626862,40.962833 152.168579,42.536240 150.377731,41.847958 
	C149.044327,41.335487 149.089539,40.057995 149.357681,38.860775 
	C149.574844,37.891094 149.779282,36.910698 150.102951,35.974316 
	C150.849197,33.815289 150.886948,31.391687 152.689987,29.204149 
	C157.633682,30.956566 153.926941,34.259396 153.900543,37.075760 
z"/>
<path fill="#000000" opacity="1.000000" stroke="none" 
	d="
M106.991974,119.012962 
	C110.827332,111.260155 115.220802,104.138542 124.358299,101.578636 
	C128.507675,100.416168 132.033859,101.038292 134.651123,104.428917 
	C137.327774,107.896515 136.689896,111.691879 134.617294,115.211746 
	C131.734100,120.108253 126.844322,122.329697 121.810799,124.223900 
	C115.961601,126.425064 115.815559,126.582489 118.900269,132.189041 
	C123.236534,140.070358 127.750999,147.851349 133.539780,154.791687 
	C135.511810,157.156021 137.522141,159.527328 141.161392,161.514465 
	C136.900024,146.779297 141.532211,135.423996 151.180206,125.729233 
	C154.014175,122.881546 153.521881,119.275772 154.305923,115.980698 
	C154.737000,114.169044 153.320267,113.488289 151.412582,113.781509 
	C144.138123,114.899635 138.931732,121.128433 139.686722,128.530991 
	C139.990143,131.506088 138.749603,132.428299 135.876068,132.985306 
	C133.466873,129.091431 134.724380,125.063866 136.684570,121.862625 
	C142.531815,112.313332 152.381302,109.889450 162.333618,108.038971 
	C164.148560,110.582542 162.969467,112.609146 162.597244,114.687706 
	C162.154617,117.159447 162.767303,118.322113 165.828262,117.889839 
	C171.261627,117.122520 176.761215,117.133270 182.085297,118.932129 
	C188.218689,121.004417 188.640930,122.598206 184.487183,128.005066 
	C183.378693,127.805649 182.911819,126.876862 182.305206,126.096863 
	C177.546341,119.977669 170.620209,119.003624 164.468170,123.550797 
	C162.639908,124.902138 161.409027,126.493477 161.320984,128.912521 
	C161.006134,137.563477 160.404892,146.236252 163.826401,154.510590 
	C165.317886,158.117523 162.913162,159.331238 160.267776,160.205566 
	C158.773697,160.699356 156.804474,160.118546 156.124969,163.033875 
	C163.549973,167.446091 170.472153,162.399292 177.535065,161.267395 
	C177.763901,164.043671 175.771317,164.150375 174.350555,164.761871 
	C167.069534,167.895569 159.406250,167.141663 151.746460,167.272675 
	C134.920380,167.560440 125.977898,157.092438 118.685272,144.078735 
	C115.302002,138.041275 111.743599,132.080246 109.232254,125.851204 
	C111.186020,123.723816 113.269043,123.944092 115.193993,123.525131 
	C120.721588,122.322075 125.679039,120.044922 128.503143,114.769821 
	C130.030487,111.916908 130.253922,108.858337 127.559227,106.542595 
	C125.050476,104.386627 122.287964,105.132607 119.694710,106.707321 
	C117.367073,108.120758 115.441055,110.031601 114.118889,112.341476 
	C107.213661,124.405228 102.901649,137.115738 104.888275,151.326157 
	C101.213799,152.256805 100.974281,152.055695 100.622871,148.255722 
	C100.058304,142.150757 102.073891,136.407547 103.229729,129.792847 
	C104.620972,125.718224 105.806473,122.365593 106.991974,119.012962 
M147.460678,143.121857 
	C146.051682,149.009491 145.171173,154.805374 150.898193,160.568497 
	C150.346863,152.087875 150.781815,144.619217 151.461273,136.070175 
	C148.513809,138.458801 148.435440,140.586731 147.460678,143.121857 
M158.795853,151.639130 
	C158.395111,149.624268 159.116425,147.433868 157.872971,145.369171 
	C157.020111,150.867020 157.020111,150.867020 158.880920,155.191772 
	C158.880920,153.810257 158.880920,153.041473 158.795853,151.639130 
z"/>
<path fill="#000000" opacity="1.000000" stroke="none" 
	d="
M107.051109,118.632088 
	C105.806473,122.365593 104.620972,125.718224 103.296120,129.356415 
	C100.603752,135.484756 99.335007,141.663788 98.320412,147.916504 
	C98.003052,149.872330 97.812592,151.980698 95.109917,152.274399 
	C91.486992,152.668121 90.177719,151.095459 90.938560,147.603546 
	C92.715843,139.446732 95.540710,131.624100 98.492912,123.841400 
	C99.435707,121.355942 100.376190,118.869614 101.745720,115.253685 
	C98.791763,118.385353 96.759193,120.841568 94.421333,122.961037 
	C87.952980,128.825119 80.346939,131.889313 71.585579,130.536697 
	C61.626102,128.999100 57.318779,123.364815 57.651447,113.261307 
	C58.122196,98.963821 69.710388,84.468262 83.477646,81.261223 
	C88.556862,80.078049 93.747223,79.930321 98.621193,82.312294 
	C104.585564,85.227165 106.735222,90.261421 106.463272,96.678566 
	C106.334846,99.708862 105.477242,103.050156 110.142815,104.115555 
	C112.398918,104.630737 111.110451,106.902885 110.614418,108.384987 
	C109.506958,111.694008 108.285347,114.964828 107.051109,118.632088 
M83.623627,111.163300 
	C86.547379,108.272789 90.087845,106.550484 94.043716,105.558609 
	C95.819275,105.113419 97.531174,104.555298 98.498398,102.704674 
	C101.098297,97.730225 98.954872,88.306168 94.423653,84.838837 
	C92.710442,83.527878 90.849434,83.113197 88.787064,83.554871 
	C78.221420,85.817551 69.259148,105.063286 74.233986,114.831764 
	C75.072800,116.478844 76.074089,118.220100 78.183945,118.195648 
	C80.019409,118.174385 80.244324,116.305786 80.962082,115.037964 
	C81.614632,113.885323 82.396690,112.806000 83.623627,111.163300 
M92.513351,118.001266 
	C94.116478,115.085258 96.844383,112.596710 96.361557,108.721703 
	C89.382675,109.520653 85.376312,112.883003 84.483902,118.446419 
	C83.843643,122.437828 80.733475,124.335770 76.767876,122.927834 
	C72.867661,121.543098 70.739166,118.644066 69.610588,114.622780 
	C68.121140,109.315689 69.809479,104.250992 70.607887,98.451736 
	C66.128899,104.385345 64.235069,113.351440 65.875313,119.235100 
	C68.269402,127.822868 74.144966,130.590866 82.299347,126.931122 
	C86.367462,125.105316 89.346504,121.973610 92.513351,118.001266 
z"/>
<path fill="#000000" opacity="1.000000" stroke="none" 
	d="
M149.857666,100.714005 
	C153.413162,99.224457 159.085159,101.861885 159.209991,94.344398 
	C161.378632,98.866905 159.434967,101.622452 156.478073,103.454582 
	C153.684952,105.185242 151.035400,104.485718 149.857666,100.714005 
z"/>
</svg>